Coordinates
version=1
nRows=14
nColumns=36
inDegrees=yes

Units are S.I. units (second, meters, Newtons, ...)
If the header above contains a line with 'inDegrees', this indicates whether rotational values are in degrees (yes) or radians (no).

endheader
time	pelvis_tilt	pelvis_list	pelvis_rotation	pelvis_tx	pelvis_ty	pelvis_tz	hip_flexion_r	hip_adduction_r	hip_rotation_r	knee_angle_r	knee_angle_r_beta	ankle_angle_r	subtalar_angle_r	mtp_angle_r	hip_flexion_l	hip_adduction_l	hip_rotation_l	knee_angle_l	knee_angle_l_beta	ankle_angle_l	subtalar_angle_l	mtp_angle_l	lumbar_extension	lumbar_bending	lumbar_rotation	arm_flex_r	arm_add_r	arm_rot_r	elbow_flex_r	pro_sup_r	arm_flex_l	arm_add_l	arm_rot_l	elbow_flex_l	pro_sup_l
      2.81666670	     -0.53458594	      4.16683069	     -2.14465834	      0.84102917	      1.05351504	     -0.03082707	      4.88284744	     -1.83893851	      3.15917181	     18.59824891	      0.32460068	      8.32248228	     -3.15197991	     -7.49999977	     28.43262424	      3.48817722	      0.37263071	     45.58944120	      0.79568585	     -4.61944647	     -2.42279714	     -7.49999977	    -11.32473730	     -0.98985588	      8.87305605	     26.17635040	     -1.21575684	     14.70910829	    105.43203762	     91.30922074	    -18.46841259	    -26.10786402	     20.26784123	     88.79952348	     90.66650711
      2.83333330	     -1.09471088	      3.83217229	     -2.71198777	      0.84953284	      1.05282069	     -0.03304754	      4.79029538	     -1.41620310	      3.41725763	     17.40335055	      0.30374577	      5.64635704	     -4.54871205	     -7.49999980	     26.25214247	      2.92504782	      0.04627335	     40.65492327	      0.70956227	     -6.44979681	     -2.83081542	     -7.49999980	    -10.09021201	     -1.26399900	      7.20503618	     20.93868111	     -1.11517207	     15.27772989	    102.86650580	     86.52976394	    -19.49023449	    -23.12068548	     15.02215793	     91.02349030	     96.02951279
      2.85000000	     -1.54453199	      3.18888992	     -3.19232245	      0.85794501	      1.05377792	     -0.03500121	      4.91779298	     -0.74588451	      3.81102428	     16.86425362	      0.29433675	      3.35126396	     -6.02289710	     -7.49999980	     23.86203931	      2.02206871	     -0.75534838	     35.92996709	      0.62709623	     -8.43491479	     -4.22143353	     -7.49999980	     -8.80971067	     -1.17881198	      6.78652856	     14.85652903	     -2.09423560	     14.21737208	    101.69290377	     86.09374952	    -18.21060851	    -21.15061924	     12.89140475	     93.65817144	     95.59783724
      2.86666670	     -1.89586554	      2.38408215	     -3.50816343	      0.86030460	      1.05438686	     -0.03757726	      5.58805358	      0.08901210	      4.54747850	     17.64035441	      0.30788227	      1.55453161	     -7.70841481	     -7.49999980	     21.83487030	      1.09574096	     -1.64102343	     32.38915454	      0.56529739	     -9.01705224	     -4.83541150	     -7.49999980	     -7.90067242	     -0.80062302	      5.92041769	      8.62980014	     -3.45901994	     13.51559693	    100.31285961	     85.51395300	    -15.41967064	    -19.62000619	     10.71022636	     96.81040152	     95.42797825
      2.88333330	     -2.18487761	      1.28079730	     -3.75906913	      0.86339657	      1.05459978	     -0.04199945	      6.70820045	      1.14782283	      5.02955735	     19.69830693	      0.34380031	     -0.61703375	    -11.04661093	     -7.49999981	     19.66737588	      0.08096408	     -2.14726481	     28.84637632	      0.50346424	     -8.64198841	     -4.74448358	     -7.49999981	     -7.14527858	     -0.07976745	      4.84674276	      3.19104640	     -5.40726258	     12.93578562	     99.00266502	     84.86094279	    -12.77848490	    -17.79580731	     10.15160428	     99.32469876	     95.06058079
      2.90000000	     -2.31467187	     -0.46834343	     -3.95204236	      0.86201778	      1.05731902	     -0.04423671	      8.80887101	      2.86913777	      5.31330721	     24.43803778	      0.42652422	     -2.39534608	    -14.04567497	     -7.49999981	     17.73511883	     -1.57173377	     -2.79310370	     25.87599004	      0.45162122	     -6.49752761	     -3.73583832	     -7.49999981	     -7.07915580	      1.39871737	      3.84633718	     -2.17713884	     -7.71923094	     12.67346299	     98.72142547	     84.67847952	    -10.79798441	    -15.42602134	      9.80178586	    102.36143137	     94.53841683
      2.91666670	     -1.77851381	     -2.27548070	     -4.45643693	      0.86636897	      1.06148828	     -0.04833562	     10.55696332	      4.49448619	      4.55857390	     30.98360281	      0.54076588	     -3.49999366	    -18.14720412	     -7.49999982	     14.93237203	     -3.37409961	     -3.52219807	     22.99865307	      0.40140222	     -3.37969976	     -1.40610882	     -7.49999982	     -7.70660722	      2.95281892	      3.62226676	     -8.42588719	    -10.22172417	     11.45752212	     97.85292968	     83.84564106	     -8.17437569	    -13.07364639	     10.84429951	    104.46027247	     91.81767036
      2.93333330	     -1.25710977	     -3.88174631	     -5.10823975	      0.86554103	      1.04253397	     -0.05251761	     13.80776641	      5.92638590	      3.31432331	     41.14703248	      0.71815119	     -2.26206635	    -21.97065810	     -7.49999982	     13.03817729	     -5.05000409	     -4.70864812	     21.89510706	      0.38214171	      1.00148418	      0.06154953	     -7.49999982	     -8.60018422	      4.32262106	      2.56020553	    -13.70299221	    -12.96470898	     11.03042433	     97.85527853	     82.98493886	     -5.88968236	    -10.45140219	     10.33513299	    107.65521443	     90.25768687
      2.95000000	     -0.57180260	     -4.84910363	     -5.77225302	      0.86722977	      1.03608165	     -0.05458080	     16.96592871	      6.52875716	      2.10811316	     52.44323324	      0.91530709	     -1.06933291	    -25.77376166	     -7.49999983	     11.32213662	     -6.01252871	     -6.03939312	     21.39209648	      0.37336252	      5.72455435	      1.81475928	     -7.49999983	     -9.45477902	      4.91679909	      2.26488472	    -19.30055924	    -15.09466295	      8.69278694	     96.78998556	     82.91710837	     -0.11765719	     -9.39614177	     12.25994727	    108.72996566	     89.03430856
      2.96666670	     -0.00321068	     -5.54048774	     -6.61243985	      0.86748572	      1.02962331	     -0.06356064	     20.52619212	      6.38088958	      1.12887318	     64.23673742	      1.12114257	     -0.51049609	    -28.14682032	     -7.49999983	     10.16598182	     -6.57074957	     -7.50106497	     21.80052278	      0.38049090	      9.99206814	      3.28535463	     -7.49999983	    -10.47221823	      5.25725948	      1.75087585	    -24.49940824	    -16.96736683	      5.90532126	     95.09342833	     83.12754734	      5.89443337	     -8.31684591	     13.83324438	    109.31081576	     87.80454382
      2.98333330	      0.47577186	     -6.20883711	     -7.23917095	      0.86060011	      1.02493295	     -0.06333142	     24.09777840	      6.33182061	      0.63070707	     75.03450750	      1.30959921	     -0.99066790	    -28.76854469	     -7.49999984	      9.57434114	     -7.19438928	     -8.55079526	     22.59840547	      0.39441658	     13.39329314	      4.25287887	     -7.49999984	    -11.85891463	      5.37658268	      0.81263853	    -27.45737339	    -19.64029028	      5.56230943	     92.75476817	     81.73342343	     11.88022501	     -7.25974210	     14.12279553	    109.78292876	     85.31144779
      3.00000000	      0.93937932	     -6.75009930	     -8.16484012	      0.85608166	      1.02447475	     -0.06639264	     27.44029391	      6.49035226	      0.64194912	     84.41364853	      1.47329610	     -1.84926890	    -28.66388084	     -7.49999984	      9.16462358	     -7.57468542	     -9.31706105	     23.37758687	      0.40801586	     15.67735720	      4.57475271	     -7.49999984	    -13.65448444	      5.43395561	     -0.18613242	    -29.12389716	    -22.43500665	      6.03699835	     89.90313943	     80.36866445	     17.77427930	     -6.47909213	     13.83469859	    109.84363068	     82.97770975
      3.01666670	      1.17203080	     -6.84503689	     -9.22595609	      0.84681776	      1.02246731	     -0.06800282	     30.72986907	      6.96938737	      0.94076098	     92.02927730	      1.60621390	     -2.37418437	    -29.00611566	     -7.49999985	      9.65343336	     -7.71968065	    -10.26309718	     24.90263318	      0.43463294	     16.43345843	      3.69260856	     -7.49999985	    -15.52419138	      5.05498071	     -1.51422159	    -29.60421406	    -24.64516102	      6.05553711	     86.96361221	     83.70656334	     22.97071187	     -6.38444038	     12.11489486	    110.43411786	     83.32159827
      3.03333330	      1.78929135	     -6.97874302	     -9.88116295	      0.84295066	      1.01814216	     -0.06935502	     33.15439434	      7.52851619	      1.20778335	     98.55611008	      1.72012862	     -2.82920726	    -29.17718430	     -7.49999985	      9.95960103	     -7.93976221	    -10.78540028	     26.71034061	      0.46618339	     16.87011884	      3.04624880	     -7.49999985	    -17.85330172	      4.72147875	     -2.24364404	    -31.01842375	    -26.57785070	      6.19342971	     85.63290554	     83.71150969	     28.05057139	     -6.50814503	     10.55259167	    111.16898261	     83.16649733
